<svg t="1684478158543" class="icon" viewBox="0 0 1024 1024" version="1.1" xmlns="http://www.w3.org/2000/svg" p-id="3024" xmlns:xlink="http://www.w3.org/1999/xlink" width="200" height="200">
  <path d="M131.85792 545.28l93.610667-426.666667c4.266667-20.053333 23.04-33.024 43.690666-33.024L745.48992 85.58933299 745.48992 523.093333l-154.282667 404.73600001c-3.072-1.792-7.338667-1.194667-9.728-4.18133301a45.226667 45.226667 0 0 1-12.202666-27.733333c0-27.733333-0.597333-53.76 5.461333-72.021334 32.853333-96.170667 38.314667-181.162667 38.314667-181.162666l3.072-45.482667-441.685334 0c-29.184 0-48.64-24.746667-42.581333-51.882667z m762.026667-459.690667l-60.928 0L832.956587 491.178667l60.928 0 0-405.589334z m-719.445334 597.333334l341.333334-1e-8c-2.986667 26.453333-4.181333 53.67466699-24.832 114.43200001-13.397333 39.509333-9.728 75.52-9.728 98.56 0 31.91466701 13.397333 61.44 35.84 85.58933299A131.84 131.84 0 0 0 613.052587 1024l27.904 0 0-0.597333L653.159253 999.253333 816.572587 576.170667 981.351253 576.17066699 981.351253 0l-712.192 0c-61.952 0-116.053333 42.496-128.768 101.546667l-94.72000001 426.666666c-17.664 78.506667 46.08 154.624 128.76800001 154.624z" p-id="3025" fill="#adb5bd"/>
</svg>