<svg t="1684488826113" class="icon" viewBox="0 0 1024 1024" version="1.1" xmlns="http://www.w3.org/2000/svg" p-id="3867" xmlns:xlink="http://www.w3.org/1999/xlink" width="200" height="200">
  <path d="M519.400727 109.195636c-218.484364 0-395.636364 177.152-395.636364 395.636364s177.152 395.636364 395.636364 395.636364 395.636364-177.152 395.636364-395.636364S737.885091 109.195636 519.400727 109.195636zM519.400727 760.878545c-25.693091 0-46.545455-20.852364-46.545455-46.545455s20.852364-46.545455 46.545455-46.545455 46.545455 20.852364 46.545455 46.545455S545.093818 760.878545 519.400727 760.878545zM565.946182 574.650182c0 25.693091-20.852364 46.545455-46.545455 46.545455s-46.545455-20.852364-46.545455-46.545455l0-256c0-25.693091 20.852364-46.545455 46.545455-46.545455s46.545455 20.852364 46.545455 46.545455L565.946182 574.650182z" p-id="3868" fill="#F7A433"/>
</svg>
